<svg xmlns="http://www.w3.org/2000/svg" xmlns:xlink="http://www.w3.org/1999/xlink" width="500" zoomAndPan="magnify" viewBox="0 0 375 374.999991" height="500" preserveAspectRatio="xMidYMid meet" version="1.0"><defs><clipPath id="5d9ae6a955"><path d="M 116.585938 89.472656 L 258.335938 89.472656 L 258.335938 224.472656 L 116.585938 224.472656 Z M 116.585938 89.472656 " clip-rule="nonzero"/></clipPath></defs><rect x="-37.5" width="450" fill="#ffffff" y="-37.499999" height="449.999989" fill-opacity="1"/><rect x="-37.5" width="450" fill="#242424" y="-37.499999" height="449.999989" fill-opacity="1"/><g clip-path="url(#5d9ae6a955)"><path fill="#efefef" d="M 255.960938 134.613281 C 248.289062 106.359375 225.074219 89.488281 193.867188 89.488281 L 116.585938 89.488281 L 118.109375 92.984375 C 124.660156 107.996094 139.480469 117.703125 155.863281 117.707031 L 176.90625 117.707031 L 177.078125 117.703125 C 177.878906 117.644531 180.832031 117.464844 185.265625 117.464844 C 189.527344 117.464844 193.875 117.632812 198.160156 117.960938 L 198.582031 117.996094 C 215 119.285156 237.496094 123.578125 251.394531 136.664062 L 251.574219 136.832031 C 251.644531 136.902344 251.71875 136.964844 251.789062 137.039062 L 258.402344 143.625 Z M 258.078125 167.175781 L 258.058594 167.449219 C 253.886719 202.652344 229.023438 224.519531 193.179688 224.519531 L 143.875 224.519531 L 143.875 157.871094 L 146.371094 157.871094 C 160.804688 157.871094 172.546875 169.613281 172.546875 184.046875 L 172.546875 195.847656 L 194.382812 195.847656 C 205.136719 195.847656 214.191406 192.316406 220.574219 185.632812 C 227.070312 178.832031 230.5 169.003906 230.5 157.207031 L 230.5 156.804688 C 230.5 147.671875 228.492188 139.796875 224.53125 133.394531 L 220.832031 127.417969 L 227.472656 129.722656 C 235.707031 132.582031 242.390625 136.386719 247.328125 141.042969 C 254.546875 147.839844 258.164062 156.632812 258.078125 167.175781 " fill-opacity="1" fill-rule="nonzero"/></g></svg>